<svg class="svg-icon" style="width: 1em; height: 1em;vertical-align: middle;fill: currentColor;overflow: hidden;" viewBox="0 0 1024 1024" version="1.1" xmlns="http://www.w3.org/2000/svg"><path d="M511.334 928.192c-7.899 0-15.654-2.32-21.838-6.533L322.342 807.768c-52.966-36.088-96.568-83.504-126.093-137.123-29.383-53.36-44.914-113.049-44.914-172.612V302.671c0-25.833 18.72-49.073 46.582-57.831l0.631-0.198 85.389-31.893c41.937-15.665 81.355-36.443 117.163-61.759l89.91-63.568 0.533-0.422c5.387-4.267 12.416-6.617 19.792-6.617 7.375 0 14.403 2.349 19.787 6.615l0.535 0.423 89.902 63.561c35.813 25.319 75.231 46.097 117.163 61.759l85.401 31.9 0.632 0.198c27.859 8.756 46.578 31.997 46.578 57.831v195.361c0 59.563-15.531 119.251-44.914 172.612-29.524 53.619-73.128 101.035-126.094 137.123L533.171 921.66c-6.183 4.212-13.938 6.532-21.837 6.532z" fill="#FFFFFF" /><path d="M511.336 105.383c1.687 0 3.32 0.464 4.263 1.211l1.069 0.847 1.114 0.788 89.346 63.168c37.57 26.561 78.901 48.351 122.846 64.765l84.782 31.669 1.24 0.463 1.264 0.397c17.39 5.466 29.074 19.121 29.074 33.981v195.361c0 27.859-3.597 55.722-10.69 82.817-7.026 26.837-17.497 52.991-31.123 77.737-13.699 24.878-30.602 48.361-50.24 69.797-20.01 21.842-42.899 41.6-68.033 58.724l-167.152 113.89c-2.076 1.415-4.833 2.194-7.762 2.194-2.929 0-5.686-0.779-7.76-2.192L336.418 787.107c-25.133-17.124-48.022-36.881-68.031-58.724-19.637-21.436-36.54-44.919-50.239-69.798-13.626-24.746-24.098-50.9-31.123-77.736-7.093-27.095-10.69-54.958-10.69-82.817v-195.36c0-14.859 11.685-28.515 29.077-33.981l1.263-0.397 1.24-0.463 84.771-31.662c43.953-16.418 85.285-38.208 122.846-64.765l89.355-63.175 1.112-0.786 1.067-0.845c0.945-0.75 2.582-1.215 4.27-1.215m0-50c-12.599 0-25.198 4.006-35.314 12.019l-89.355 63.175c-34.054 24.077-71.555 43.84-111.477 58.753l-84.77 31.661c-38.359 12.056-64.086 44.845-64.086 81.68v195.361c0 129.967 67.395 252.358 181.93 330.395L475.42 942.32c10.639 7.248 23.276 10.872 35.914 10.872s25.275-3.624 35.914-10.872l167.154-113.892c114.537-78.037 181.932-200.429 181.932-330.395V302.672c0-36.835-25.723-69.625-64.082-81.68l-84.782-31.669c-39.921-14.91-77.421-34.676-111.477-58.753l-89.345-63.167c-10.116-8.013-22.714-12.02-35.312-12.02z" fill="#1A1A1A" /><path d="M694.666 490.153v-95.639c0-18.036-12.248-34.085-30.518-39.989l-40.372-15.504c-19.008-7.298-36.866-16.977-53.082-28.763l-42.548-30.925c-9.634-7.845-23.996-7.845-33.631 0l-42.548 30.926c-16.219 11.788-34.072 21.465-53.084 28.765l-40.366 15.501c-18.267 5.903-30.516 21.952-30.516 39.989v95.639c0 63.628 32.091 123.546 86.63 161.751l79.598 55.755c10.135 7.097 24.072 7.097 34.204 0l79.596-55.755c54.547-38.205 86.637-98.124 86.637-161.751z" fill="#FFCD36" /></svg>